<?xml version="1.0" encoding="UTF-8" standalone="no"?>
<!-- Created with Inkscape (http://www.inkscape.org/) -->

<svg
   xmlns:ns0="http://www.iki.fi/pav/software/textext/"
   xmlns:dc="http://purl.org/dc/elements/1.1/"
   xmlns:cc="http://creativecommons.org/ns#"
   xmlns:rdf="http://www.w3.org/1999/02/22-rdf-syntax-ns#"
   xmlns:svg="http://www.w3.org/2000/svg"
   xmlns="http://www.w3.org/2000/svg"
   xmlns:sodipodi="http://sodipodi.sourceforge.net/DTD/sodipodi-0.dtd"
   xmlns:inkscape="http://www.inkscape.org/namespaces/inkscape"
   sodipodi:docname="transmissionbarrier.svg"
   inkscape:version="0.91 r13725"
   version="1.1"
   id="svg2"
   viewBox="0 0 338.07117 208.36683"
   height="5.8805752cm"
   width="9.5411196cm"
   inkscape:export-filename="/home/gerson/Dropbox/Aulas/2016-01/FisComp/Book/transmissionbarrier.png"
   inkscape:export-xdpi="500"
   inkscape:export-ydpi="500">
  <sodipodi:namedview
     inkscape:window-maximized="1"
     inkscape:window-y="24"
     inkscape:window-x="65"
     inkscape:window-height="1056"
     inkscape:window-width="1855"
     units="cm"
     showgrid="false"
     inkscape:current-layer="layer1"
     inkscape:document-units="px"
     inkscape:cy="93.257142"
     inkscape:cx="213.45097"
     inkscape:zoom="2.3830139"
     inkscape:pageshadow="2"
     inkscape:pageopacity="0.0"
     borderopacity="1.0"
     bordercolor="#666666"
     pagecolor="#ffffff"
     id="base"
     fit-margin-top="0"
     fit-margin-left="0"
     fit-margin-right="0"
     fit-margin-bottom="0" />
  <defs
     id="defs4">
    <marker
       inkscape:isstock="true"
       style="overflow:visible"
       id="Arrow1Mend"
       refX="0"
       refY="0"
       orient="auto"
       inkscape:stockid="Arrow1Mend">
      <path
         transform="matrix(-0.4,0,0,-0.4,-4,0)"
         style="fill:#000000;fill-opacity:1;fill-rule:evenodd;stroke:#000000;stroke-width:1pt;stroke-opacity:1"
         d="M 0,0 5,-5 -12.5,0 5,5 0,0 Z"
         id="path4153"
         inkscape:connector-curvature="0" />
    </marker>
  </defs>
  <metadata
     id="metadata7">
    <rdf:RDF>
      <cc:Work
         rdf:about="">
        <dc:format>image/svg+xml</dc:format>
        <dc:type
           rdf:resource="http://purl.org/dc/dcmitype/StillImage" />
        <dc:title></dc:title>
      </cc:Work>
    </rdf:RDF>
  </metadata>
  <g
     transform="translate(35.051615,-792.40198)"
     id="layer1"
     inkscape:groupmode="layer"
     inkscape:label="Layer 1">
    <path
       sodipodi:nodetypes="czc"
       inkscape:connector-curvature="0"
       id="path4136"
       d="m 58.588848,972.28779 c 79.528262,0 49.230932,-138.74124 79.967962,-138.74124 30.73703,0 9.00224,138.74124 80.23662,138.74124"
       style="fill:none;fill-rule:evenodd;stroke:#000000;stroke-width:2;stroke-linecap:butt;stroke-linejoin:miter;stroke-miterlimit:4;stroke-dasharray:none;stroke-opacity:1"
       inkscape:export-xdpi="500"
       inkscape:export-ydpi="500" />
    <path
       inkscape:connector-curvature="0"
       id="path4138"
       d="m 19.697975,972.56022 253.043215,0"
       style="fill:none;fill-rule:evenodd;stroke:#000000;stroke-width:2;stroke-linecap:butt;stroke-linejoin:miter;stroke-miterlimit:4;stroke-dasharray:none;stroke-opacity:1;marker-end:url(#Arrow1Mend)"
       inkscape:export-xdpi="500"
       inkscape:export-ydpi="500" />
    <g
       ns0:preamble=""
       ns0:text="$x$"
       word-spacing="normal"
       letter-spacing="normal"
       font-size-adjust="none"
       font-stretch="normal"
       font-weight="normal"
       font-variant="normal"
       font-style="normal"
       stroke-miterlimit="10.433"
       xml:space="preserve"
       transform="matrix(2.4027784,0,0,-2.4027782,-279.32869,2693.5462)"
       id="content"
       style="font-style:normal;font-variant:normal;font-weight:normal;font-stretch:normal;letter-spacing:normal;word-spacing:normal;text-anchor:start;fill:none;fill-opacity:1;fill-rule:evenodd;stroke:#000000;stroke-width:0.41618484;stroke-linecap:butt;stroke-linejoin:miter;stroke-miterlimit:10.43299961;stroke-dasharray:none;stroke-dashoffset:0;stroke-opacity:1"
       inkscape:export-xdpi="500"
       inkscape:export-ydpi="500"><path
         id="path4430"
         d="m 226.76,710.12 0,0.03 0.01,0.03 0.01,0.03 0.01,0.04 0.01,0.04 0.01,0.04 0.01,0.04 0.02,0.05 0.01,0.04 0.02,0.05 0.02,0.05 0.02,0.05 0.02,0.05 0.03,0.05 0.02,0.05 0.03,0.05 0.03,0.05 0.03,0.04 0.03,0.05 0.04,0.04 0.04,0.05 0.04,0.04 0.04,0.04 0.04,0.03 0.05,0.03 0.05,0.03 0.02,0.01 0.03,0.02 0.02,0.01 0.03,0.01 0.03,0.01 0.03,0 0.03,0.01 0.02,0.01 0.04,0 0.03,0 0.03,0.01 0.03,0 c 0.05,0 0.29,0 0.5,-0.13 -0.28,-0.05 -0.48,-0.3 -0.48,-0.54 0,-0.16 0.11,-0.35 0.38,-0.35 0.22,0 0.54,0.18 0.54,0.58 0,0.52 -0.59,0.66 -0.93,0.66 -0.58,0 -0.93,-0.53 -1.04,-0.76 -0.25,0.66 -0.79,0.76 -1.08,0.76 -1.03,0 -1.6,-1.29 -1.6,-1.53 0,-0.1 0.1,-0.1 0.12,-0.1 0.08,0 0.11,0.02 0.13,0.11 0.34,1.05 0.99,1.3 1.33,1.3 0.19,0 0.54,-0.09 0.54,-0.67 0,-0.31 -0.17,-0.97 -0.54,-2.36 -0.16,-0.62 -0.51,-1.04 -0.94,-1.04 -0.06,0 -0.29,0 -0.5,0.13 0.25,0.05 0.47,0.26 0.47,0.54 0,0.27 -0.22,0.35 -0.37,0.35 -0.3,0 -0.55,-0.26 -0.55,-0.58 0,-0.46 0.5,-0.65 0.94,-0.65 0.65,0 1.01,0.69 1.04,0.75 0.12,-0.37 0.48,-0.75 1.07,-0.75 1.03,0 1.6,1.28 1.6,1.53 0,0.1 -0.09,0.1 -0.12,0.1 -0.09,0 -0.11,-0.05 -0.13,-0.11 -0.33,-1.07 -1.01,-1.31 -1.33,-1.31 -0.38,0 -0.54,0.32 -0.54,0.66 0,0.22 0.06,0.44 0.17,0.87 z"
         inkscape:connector-curvature="0"
         style="fill:#000000;stroke-width:0" /></g>    <g
       id="g4456"
       transform="matrix(2.4027784,0,0,-2.4027782,-405.3113,2695.9048)"
       xml:space="preserve"
       stroke-miterlimit="10.433"
       font-style="normal"
       font-variant="normal"
       font-weight="normal"
       font-stretch="normal"
       font-size-adjust="none"
       letter-spacing="normal"
       word-spacing="normal"
       ns0:text="$x_0$"
       ns0:preamble=""
       style="font-style:normal;font-variant:normal;font-weight:normal;font-stretch:normal;letter-spacing:normal;word-spacing:normal;text-anchor:start;fill:none;fill-opacity:1;fill-rule:evenodd;stroke:#000000;stroke-width:0.41618484;stroke-linecap:butt;stroke-linejoin:miter;stroke-miterlimit:10.43299961;stroke-dasharray:none;stroke-dashoffset:0;stroke-opacity:1"
       inkscape:export-xdpi="500"
       inkscape:export-ydpi="500"><path
         style="fill:#000000;stroke-width:0"
         inkscape:connector-curvature="0"
         d="m 226.76,710.12 0,0.03 0.01,0.03 0.01,0.03 0.01,0.04 0.01,0.04 0.01,0.04 0.01,0.04 0.02,0.05 0.01,0.04 0.02,0.05 0.02,0.05 0.02,0.05 0.02,0.05 0.03,0.05 0.02,0.05 0.03,0.05 0.03,0.05 0.03,0.04 0.03,0.05 0.04,0.04 0.04,0.05 0.04,0.04 0.04,0.04 0.04,0.03 0.05,0.03 0.05,0.03 0.02,0.01 0.03,0.02 0.02,0.01 0.03,0.01 0.03,0.01 0.03,0 0.03,0.01 0.02,0.01 0.04,0 0.03,0 0.03,0.01 0.03,0 c 0.05,0 0.29,0 0.5,-0.13 -0.28,-0.05 -0.48,-0.3 -0.48,-0.54 0,-0.16 0.11,-0.35 0.38,-0.35 0.22,0 0.54,0.18 0.54,0.58 0,0.52 -0.59,0.66 -0.93,0.66 -0.58,0 -0.93,-0.53 -1.04,-0.76 -0.25,0.66 -0.79,0.76 -1.08,0.76 -1.03,0 -1.6,-1.29 -1.6,-1.53 0,-0.1 0.1,-0.1 0.12,-0.1 0.08,0 0.11,0.02 0.13,0.11 0.34,1.05 0.99,1.3 1.33,1.3 0.19,0 0.54,-0.09 0.54,-0.67 0,-0.31 -0.17,-0.97 -0.54,-2.36 -0.16,-0.62 -0.51,-1.04 -0.94,-1.04 -0.06,0 -0.29,0 -0.5,0.13 0.25,0.05 0.47,0.26 0.47,0.54 0,0.27 -0.22,0.35 -0.37,0.35 -0.3,0 -0.55,-0.26 -0.55,-0.58 0,-0.46 0.5,-0.65 0.94,-0.65 0.65,0 1.01,0.69 1.04,0.75 0.12,-0.37 0.48,-0.75 1.07,-0.75 1.03,0 1.6,1.28 1.6,1.53 0,0.1 -0.09,0.1 -0.12,0.1 -0.09,0 -0.11,-0.05 -0.13,-0.11 -0.33,-1.07 -1.01,-1.31 -1.33,-1.31 -0.38,0 -0.54,0.32 -0.54,0.66 0,0.22 0.06,0.44 0.17,0.87 z"
         id="path4458" /><path
         style="fill:#000000;stroke-width:0"
         inkscape:connector-curvature="0"
         d="m 232.72,707.85 0,0.14 0,0.14 -0.01,0.13 -0.01,0.12 -0.01,0.13 -0.02,0.12 -0.01,0.11 -0.03,0.11 -0.02,0.11 -0.03,0.11 -0.03,0.1 -0.04,0.1 -0.04,0.1 -0.05,0.09 -0.05,0.1 -0.03,0.04 -0.03,0.05 c -0.22,0.32 -0.65,0.6 -1.21,0.6 l 0,-0.2 c 0.38,0 0.74,-0.23 0.87,-0.63 0.11,-0.38 0.12,-0.88 0.12,-1.48 0,-0.52 0,-1.03 -0.1,-1.47 -0.13,-0.63 -0.61,-0.78 -0.89,-0.78 l 0,0 c -0.32,0 -0.74,0.18 -0.88,0.76 -0.1,0.4 -0.1,0.97 -0.1,1.49 0,0.51 0,1.04 0.11,1.42 0.14,0.55 0.59,0.69 0.87,0.69 l 0,0.2 c -1.61,0 -1.61,-1.9 -1.61,-2.4 0,-0.5 0,-2.36 1.61,-2.36 1.62,0 1.62,1.86 1.62,2.36 z"
         id="path4460" /></g>    <path
       inkscape:connector-curvature="0"
       id="path4474"
       d="m 138.89974,966.23856 0,11.74983"
       style="fill:none;fill-rule:evenodd;stroke:#000000;stroke-width:2;stroke-linecap:butt;stroke-linejoin:miter;stroke-miterlimit:4;stroke-dasharray:none;stroke-opacity:1"
       inkscape:export-xdpi="500"
       inkscape:export-ydpi="500" />
    <path
       style="fill:none;fill-rule:evenodd;stroke:#000000;stroke-width:2;stroke-linecap:butt;stroke-linejoin:miter;stroke-miterlimit:4;stroke-dasharray:none;stroke-opacity:1"
       d="m 58.89974,966.23856 0,11.74983"
       id="path4476"
       inkscape:connector-curvature="0"
       inkscape:export-xdpi="500"
       inkscape:export-ydpi="500" />
    <path
       inkscape:connector-curvature="0"
       id="path4478"
       d="m 218.89974,966.23856 0,11.74983"
       style="fill:none;fill-rule:evenodd;stroke:#000000;stroke-width:2;stroke-linecap:butt;stroke-linejoin:miter;stroke-miterlimit:4;stroke-dasharray:none;stroke-opacity:1"
       inkscape:export-xdpi="500"
       inkscape:export-ydpi="500" />
    <g
       style="font-style:normal;font-variant:normal;font-weight:normal;font-stretch:normal;letter-spacing:normal;word-spacing:normal;text-anchor:start;fill:none;fill-opacity:1;fill-rule:evenodd;stroke:#000000;stroke-width:0.41618484;stroke-linecap:butt;stroke-linejoin:miter;stroke-miterlimit:10.43299961;stroke-dasharray:none;stroke-dashoffset:0;stroke-opacity:1"
       ns0:preamble=""
       ns0:text="$0$"
       word-spacing="normal"
       letter-spacing="normal"
       font-size-adjust="none"
       font-stretch="normal"
       font-weight="normal"
       font-variant="normal"
       font-style="normal"
       stroke-miterlimit="10.433"
       xml:space="preserve"
       transform="matrix(2.4027784,0,0,-2.4027782,-484.05238,2695.9048)"
       id="g4503"
       inkscape:export-xdpi="500"
       inkscape:export-ydpi="500"><path
         id="path4505"
         d="m 228.01,710.3 0,0.15 0,0.15 -0.01,0.15 0,0.15 -0.01,0.15 -0.02,0.14 -0.01,0.15 -0.02,0.15 -0.02,0.14 -0.03,0.15 -0.03,0.14 -0.04,0.15 -0.04,0.14 -0.05,0.14 -0.06,0.14 -0.03,0.07 -0.03,0.07 c -0.46,0.95 -1.27,1.11 -1.69,1.11 -0.6,0 -1.32,-0.26 -1.73,-1.18 -0.32,-0.69 -0.37,-1.46 -0.37,-2.26 0,-0.74 0.04,-1.64 0.45,-2.39 0.43,-0.81 1.15,-1 1.64,-1 l 0,0.21 c -0.39,0 -0.98,0.25 -1.15,1.21 -0.11,0.59 -0.11,1.51 -0.11,2.09 0,0.64 0,1.29 0.08,1.83 0.18,1.18 0.93,1.27 1.18,1.27 0.33,0 0.98,-0.18 1.17,-1.16 0.1,-0.56 0.1,-1.31 0.1,-1.94 0,-0.74 0,-1.42 -0.11,-2.05 -0.15,-0.95 -0.71,-1.25 -1.16,-1.25 l 0,0 0,-0.21 c 0.54,0 1.29,0.2 1.73,1.15 0.32,0.68 0.37,1.46 0.37,2.24 z"
         inkscape:connector-curvature="0"
         style="fill:#000000;stroke-width:0" /></g>    <g
       id="g4547"
       transform="matrix(2.4027784,0,0,-2.4027782,-326.37382,2695.9048)"
       xml:space="preserve"
       stroke-miterlimit="10.433"
       font-style="normal"
       font-variant="normal"
       font-weight="normal"
       font-stretch="normal"
       font-size-adjust="none"
       letter-spacing="normal"
       word-spacing="normal"
       ns0:text="$L$"
       ns0:preamble=""
       style="font-style:normal;font-variant:normal;font-weight:normal;font-stretch:normal;letter-spacing:normal;word-spacing:normal;text-anchor:start;fill:none;fill-opacity:1;fill-rule:evenodd;stroke:#000000;stroke-width:0.41618484;stroke-linecap:butt;stroke-linejoin:miter;stroke-miterlimit:10.43299961;stroke-dasharray:none;stroke-dashoffset:0;stroke-opacity:1"
       inkscape:export-xdpi="500"
       inkscape:export-ydpi="500"><path
         style="fill:#000000;stroke-width:0"
         inkscape:connector-curvature="0"
         d="m 227.15,713.14 0.01,0.03 0.01,0.03 0.01,0.03 0.01,0.03 0,0.03 0.01,0.02 0.01,0.03 0.01,0.02 0.02,0.02 0.01,0.02 0.01,0.02 0.02,0.02 0.02,0.02 0.02,0.01 0.02,0.02 0.02,0.01 0.03,0.02 0.03,0.01 0.03,0.01 0.04,0.01 0.02,0 0.01,0.01 0.03,0 0.02,0.01 0.02,0 0.02,0 0.03,0.01 0.02,0 0.03,0 0.02,0 0.03,0.01 0.03,0 0.03,0 0.03,0 0.03,0.01 0.04,0 0.03,0 0.04,0 0.03,0 0.04,0 0.04,0 0.04,0 0.04,0 0.05,0 c 0.3,0 0.38,0 0.38,0.19 0,0.12 -0.11,0.12 -0.16,0.12 -0.33,0 -1.15,-0.03 -1.48,-0.03 -0.29,0 -1.02,0.03 -1.32,0.03 -0.07,0 -0.19,0 -0.19,-0.2 0,-0.11 0.09,-0.11 0.28,-0.11 0.02,0 0.21,0 0.38,-0.02 0.18,-0.02 0.27,-0.03 0.27,-0.16 0,-0.04 -0.01,-0.07 -0.04,-0.19 l -1.34,-5.33 c -0.09,-0.39 -0.11,-0.47 -0.9,-0.47 -0.17,0 -0.27,0 -0.27,-0.2 0,-0.11 0.09,-0.11 0.27,-0.11 l 4.61,0 c 0.23,0 0.24,0 0.3,0.17 l 0.79,2.15 c 0.04,0.11 0.04,0.13 0.04,0.14 0,0.04 -0.03,0.11 -0.12,0.11 -0.09,0 -0.1,-0.05 -0.17,-0.21 -0.34,-0.91 -0.78,-2.05 -2.5,-2.05 l -0.93,0 c -0.14,0 -0.16,0 -0.22,0.01 -0.1,0.01 -0.13,0.02 -0.13,0.1 0,0.03 0,0.05 0.05,0.23 z"
         id="path4549" /></g>    <path
       inkscape:connector-curvature="0"
       id="path4570"
       d="m 58.89974,831.53489 0,146.4532"
       style="fill:none;fill-rule:evenodd;stroke:#000000;stroke-width:2;stroke-linecap:butt;stroke-linejoin:miter;stroke-miterlimit:4;stroke-dasharray:6, 6;stroke-dashoffset:0;stroke-opacity:1"
       inkscape:export-xdpi="500"
       inkscape:export-ydpi="500" />
    <path
       style="fill:none;fill-rule:evenodd;stroke:#000000;stroke-width:2;stroke-linecap:butt;stroke-linejoin:miter;stroke-miterlimit:4;stroke-dasharray:6, 6;stroke-dashoffset:0;stroke-opacity:1"
       d="m 218.89974,831.53489 0,146.4532"
       id="path4572"
       inkscape:connector-curvature="0"
       inkscape:export-xdpi="500"
       inkscape:export-ydpi="500" />
    <text
       sodipodi:linespacing="125%"
       id="text4574"
       y="842.12427"
       x="25.1782"
       style="font-style:normal;font-weight:normal;font-size:40px;line-height:125%;font-family:sans-serif;letter-spacing:0px;word-spacing:0px;fill:#000000;fill-opacity:1;stroke:none;stroke-width:1px;stroke-linecap:butt;stroke-linejoin:miter;stroke-opacity:1"
       xml:space="preserve"
       inkscape:export-xdpi="500"
       inkscape:export-ydpi="500"><tspan
         y="842.12427"
         x="25.1782"
         id="tspan4576"
         sodipodi:role="line">I</tspan></text>
    <text
       sodipodi:linespacing="125%"
       id="text4578"
       y="821.56213"
       x="126.31064"
       style="font-style:normal;font-weight:normal;font-size:40px;line-height:125%;font-family:sans-serif;letter-spacing:0px;word-spacing:0px;fill:#000000;fill-opacity:1;stroke:none;stroke-width:1px;stroke-linecap:butt;stroke-linejoin:miter;stroke-opacity:1"
       xml:space="preserve"
       inkscape:export-xdpi="500"
       inkscape:export-ydpi="500"><tspan
         y="821.56213"
         x="126.31064"
         id="tspan4580"
         sodipodi:role="line">II</tspan></text>
    <text
       sodipodi:linespacing="125%"
       id="text4582"
       y="836.24939"
       x="235.8358"
       style="font-style:normal;font-weight:normal;font-size:40px;line-height:125%;font-family:sans-serif;letter-spacing:0px;word-spacing:0px;fill:#000000;fill-opacity:1;stroke:none;stroke-width:1px;stroke-linecap:butt;stroke-linejoin:miter;stroke-opacity:1"
       xml:space="preserve"
       inkscape:export-xdpi="500"
       inkscape:export-ydpi="500"><tspan
         y="836.24939"
         x="235.8358"
         id="tspan4584"
         sodipodi:role="line">III</tspan></text>
    <g
       id="g4731"
       transform="matrix(0.66405851,0,0,0.63427104,8.5345992,322.06802)"
       inkscape:export-xdpi="500"
       inkscape:export-ydpi="500">
      <path
         inkscape:connector-curvature="0"
         style="fill:none;fill-opacity:1;stroke:#000000;stroke-width:3.08169293;stroke-linecap:round;stroke-linejoin:round;stroke-miterlimit:4;stroke-dasharray:none;stroke-dashoffset:0;stroke-opacity:1"
         d="m -52.034944,879.89182 c 1.516581,-2.03327 3.033163,-3.96983 4.549745,-4.47027 1.516582,-0.50045 3.033163,0.48793 4.549745,2.27549 1.516582,1.78757 3.033164,4.20939 4.549745,5.58748 1.516582,1.37809 3.033164,1.57876 4.549746,0.46779 1.516581,-1.11096 3.033163,-3.43426 4.549745,-5.3578 1.516582,-1.92354 3.033164,-3.26488 4.549745,-3.09832 1.516582,0.16656 3.033164,1.83129 4.549746,3.83661 1.516581,2.00532 3.033163,4.164 4.549745,4.98199 1.516582,0.81799 3.033163,0.21311 4.549745,-1.3906 1.516582,-1.60371 3.033164,-4.05936 4.549745,-5.66473 1.5165821,-1.60537 3.0331638,-2.20614 4.5497456,-1.39063 1.51658168,0.81552 3.0331635,2.97622 4.5497452,4.98198 1.5165818,2.00577 3.0331636,3.66738 4.5497453,3.83664 1.5165818,0.16925 3.0331639,-1.17564 4.5497449,-3.0983 1.516582,-1.92267 3.033164,-4.24458 4.549746,-5.35781 1.516581,-1.11323 3.033163,-0.90834 4.549745,0.46776 1.516582,1.37611 3.033163,3.79862 4.549745,5.58747 1.516582,1.78886 3.033164,2.77335 4.549745,2.27553 1.516582,-0.49783 3.033164,-2.43699 4.549746,-4.47026"
         title="sin(2*3.141592*x)"
         id="path4695" />
      <path
         inkscape:transform-center-x="-2.6311085"
         d="m 50.389916,879.47198 -15.786651,9.11443 0,-18.22885 z"
         inkscape:randomized="0"
         inkscape:rounded="0"
         inkscape:flatsided="true"
         sodipodi:arg2="1.0471976"
         sodipodi:arg1="0"
         sodipodi:r2="5.262217"
         sodipodi:r1="10.524434"
         sodipodi:cy="879.47198"
         sodipodi:cx="39.865482"
         sodipodi:sides="3"
         id="path4729"
         style="fill:#000000;fill-opacity:1;stroke:#000000;stroke-width:3.08169317;stroke-linecap:round;stroke-linejoin:round;stroke-miterlimit:4;stroke-dasharray:none;stroke-dashoffset:0;stroke-opacity:1"
         sodipodi:type="star" />
    </g>
    <g
       transform="matrix(-0.66405851,0,0,0.63427104,-0.5666518,340.06802)"
       id="g4735"
       inkscape:export-xdpi="500"
       inkscape:export-ydpi="500">
      <path
         id="path4737"
         title="sin(2*3.141592*x)"
         d="m -52.034944,879.89182 c 1.516581,-2.03327 3.033163,-3.96983 4.549745,-4.47027 1.516582,-0.50045 3.033163,0.48793 4.549745,2.27549 1.516582,1.78757 3.033164,4.20939 4.549745,5.58748 1.516582,1.37809 3.033164,1.57876 4.549746,0.46779 1.516581,-1.11096 3.033163,-3.43426 4.549745,-5.3578 1.516582,-1.92354 3.033164,-3.26488 4.549745,-3.09832 1.516582,0.16656 3.033164,1.83129 4.549746,3.83661 1.516581,2.00532 3.033163,4.164 4.549745,4.98199 1.516582,0.81799 3.033163,0.21311 4.549745,-1.3906 1.516582,-1.60371 3.033164,-4.05936 4.549745,-5.66473 1.5165821,-1.60537 3.0331638,-2.20614 4.5497456,-1.39063 1.51658168,0.81552 3.0331635,2.97622 4.5497452,4.98198 1.5165818,2.00577 3.0331636,3.66738 4.5497453,3.83664 1.5165818,0.16925 3.0331639,-1.17564 4.5497449,-3.0983 1.516582,-1.92267 3.033164,-4.24458 4.549746,-5.35781 1.516581,-1.11323 3.033163,-0.90834 4.549745,0.46776 1.516582,1.37611 3.033163,3.79862 4.549745,5.58747 1.516582,1.78886 3.033164,2.77335 4.549745,2.27553 1.516582,-0.49783 3.033164,-2.43699 4.549746,-4.47026"
         style="fill:none;fill-opacity:1;stroke:#000000;stroke-width:3.08169293;stroke-linecap:round;stroke-linejoin:round;stroke-miterlimit:4;stroke-dasharray:none;stroke-dashoffset:0;stroke-opacity:1"
         inkscape:connector-curvature="0" />
      <path
         sodipodi:type="star"
         style="fill:#000000;fill-opacity:1;stroke:#000000;stroke-width:3.08169317;stroke-linecap:round;stroke-linejoin:round;stroke-miterlimit:4;stroke-dasharray:none;stroke-dashoffset:0;stroke-opacity:1"
         id="path4739"
         sodipodi:sides="3"
         sodipodi:cx="39.865482"
         sodipodi:cy="879.47198"
         sodipodi:r1="10.524434"
         sodipodi:r2="5.262217"
         sodipodi:arg1="0"
         sodipodi:arg2="1.0471976"
         inkscape:flatsided="true"
         inkscape:rounded="0"
         inkscape:randomized="0"
         d="m 50.389916,879.47198 -15.786651,9.11443 0,-18.22885 z"
         inkscape:transform-center-x="-2.6311085" />
    </g>
    <g
       transform="matrix(0.66405851,0,0,0.63427104,268.5346,330.06802)"
       id="g4741"
       inkscape:export-xdpi="500"
       inkscape:export-ydpi="500">
      <path
         id="path4743"
         title="sin(2*3.141592*x)"
         d="m -52.034944,879.89182 c 1.516581,-2.03327 3.033163,-3.96983 4.549745,-4.47027 1.516582,-0.50045 3.033163,0.48793 4.549745,2.27549 1.516582,1.78757 3.033164,4.20939 4.549745,5.58748 1.516582,1.37809 3.033164,1.57876 4.549746,0.46779 1.516581,-1.11096 3.033163,-3.43426 4.549745,-5.3578 1.516582,-1.92354 3.033164,-3.26488 4.549745,-3.09832 1.516582,0.16656 3.033164,1.83129 4.549746,3.83661 1.516581,2.00532 3.033163,4.164 4.549745,4.98199 1.516582,0.81799 3.033163,0.21311 4.549745,-1.3906 1.516582,-1.60371 3.033164,-4.05936 4.549745,-5.66473 1.5165821,-1.60537 3.0331638,-2.20614 4.5497456,-1.39063 1.51658168,0.81552 3.0331635,2.97622 4.5497452,4.98198 1.5165818,2.00577 3.0331636,3.66738 4.5497453,3.83664 1.5165818,0.16925 3.0331639,-1.17564 4.5497449,-3.0983 1.516582,-1.92267 3.033164,-4.24458 4.549746,-5.35781 1.516581,-1.11323 3.033163,-0.90834 4.549745,0.46776 1.516582,1.37611 3.033163,3.79862 4.549745,5.58747 1.516582,1.78886 3.033164,2.77335 4.549745,2.27553 1.516582,-0.49783 3.033164,-2.43699 4.549746,-4.47026"
         style="fill:none;fill-opacity:1;stroke:#000000;stroke-width:3.08169293;stroke-linecap:round;stroke-linejoin:round;stroke-miterlimit:4;stroke-dasharray:none;stroke-dashoffset:0;stroke-opacity:1"
         inkscape:connector-curvature="0" />
      <path
         sodipodi:type="star"
         style="fill:#000000;fill-opacity:1;stroke:#000000;stroke-width:3.08169317;stroke-linecap:round;stroke-linejoin:round;stroke-miterlimit:4;stroke-dasharray:none;stroke-dashoffset:0;stroke-opacity:1"
         id="path4745"
         sodipodi:sides="3"
         sodipodi:cx="39.865482"
         sodipodi:cy="879.47198"
         sodipodi:r1="10.524434"
         sodipodi:r2="5.262217"
         sodipodi:arg1="0"
         sodipodi:arg2="1.0471976"
         inkscape:flatsided="true"
         inkscape:rounded="0"
         inkscape:randomized="0"
         d="m 50.389916,879.47198 -15.786651,9.11443 0,-18.22885 z"
         inkscape:transform-center-x="-2.6311085" />
    </g>
    <g
       id="g4791"
       transform="matrix(2.4027784,0,0,-2.4027782,-560.57687,2571.2727)"
       xml:space="preserve"
       stroke-miterlimit="10.433"
       font-style="normal"
       font-variant="normal"
       font-weight="normal"
       font-stretch="normal"
       font-size-adjust="none"
       letter-spacing="normal"
       word-spacing="normal"
       ns0:text="$e^{ikx}$"
       ns0:preamble=""
       style="font-style:normal;font-variant:normal;font-weight:normal;font-stretch:normal;letter-spacing:normal;word-spacing:normal;text-anchor:start;fill:none;fill-opacity:1;fill-rule:evenodd;stroke:#000000;stroke-width:0.41618484;stroke-linecap:butt;stroke-linejoin:miter;stroke-miterlimit:10.43299961;stroke-dasharray:none;stroke-dashoffset:0;stroke-opacity:1"
       inkscape:export-xdpi="500"
       inkscape:export-ydpi="500"><path
         style="fill:#000000;stroke-width:0"
         inkscape:connector-curvature="0"
         d="m 225.29,709.42 0.03,0 0.03,0 0.03,0 0.04,0 0.04,0 0.04,0 0.04,0 0.04,0.01 0.05,0 0.04,0 0.05,0 0.05,0.01 0.05,0 0.05,0.01 0.11,0.01 0.1,0.01 0.11,0.01 0.11,0.02 0.11,0.02 0.1,0.03 0.06,0.01 0.05,0.02 0.05,0.01 0.05,0.02 0.05,0.02 0.05,0.02 c 0.69,0.3 0.74,0.88 0.74,1.02 0,0.44 -0.38,0.85 -1.06,0.85 l 0,-0.22 c 0.46,0 0.73,-0.29 0.73,-0.63 0,-1.03 -1.59,-1.03 -2,-1.03 l -0.41,0 c 0.39,1.51 1.42,1.66 1.68,1.66 l 0,0.22 c -1.11,0 -2.61,-0.97 -2.61,-2.71 0,-1.01 0.59,-1.79 1.56,-1.79 1.42,0 2.26,1.05 2.26,1.17 0,0.06 -0.06,0.13 -0.12,0.13 -0.05,0 -0.07,-0.02 -0.13,-0.1 -0.78,-0.99 -1.87,-0.99 -1.99,-0.99 -0.77,0 -0.86,0.84 -0.86,1.16 0,0.12 0.01,0.42 0.15,1.03 z"
         id="path4793" /><path
         style="fill:#000000;stroke-width:0"
         inkscape:connector-curvature="0"
         d="m 230.33,715.09 0,0.01 0,0.01 -0.01,0.01 0,0.01 0,0.01 0,0.01 -0.01,0.01 0,0.01 0,0.02 -0.01,0.01 0,0.01 -0.01,0.01 -0.01,0.01 0,0.01 -0.01,0.01 -0.01,0.01 -0.01,0.01 -0.01,0.01 -0.01,0.01 -0.01,0.01 -0.01,0 -0.01,0.01 -0.01,0.01 -0.02,0 -0.01,0.01 -0.01,0.01 -0.02,0 -0.01,0 -0.02,0.01 -0.02,0 -0.01,0 -0.02,0 c -0.19,0 -0.39,-0.18 -0.39,-0.38 0,-0.12 0.09,-0.27 0.28,-0.27 0.2,0 0.39,0.2 0.39,0.39 z"
         id="path4795" /><path
         style="fill:#000000;stroke-width:0"
         inkscape:connector-curvature="0"
         d="m 228.91,711.55 -0.01,-0.01 0,-0.02 -0.01,-0.03 -0.01,-0.02 -0.01,-0.02 0,-0.01 -0.01,-0.02 0,-0.02 0,-0.02 -0.01,-0.02 0,-0.02 0,-0.01 0,-0.01 0,-0.01 0,-0.01 -0.01,-0.01 0,-0.01 0,-0.01 0,-0.01 c 0,-0.33 0.28,-0.59 0.67,-0.59 0.69,0 1,0.96 1,1.06 0,0.1 -0.09,0.1 -0.11,0.1 -0.1,0 -0.11,-0.05 -0.14,-0.12 -0.16,-0.56 -0.46,-0.85 -0.73,-0.85 -0.14,0 -0.18,0.1 -0.18,0.25 0,0.16 0.05,0.29 0.11,0.44 0.07,0.19 0.15,0.38 0.23,0.56 0.06,0.17 0.31,0.8 0.34,0.88 0.02,0.07 0.04,0.16 0.04,0.23 0,0.32 -0.28,0.59 -0.66,0.59 -0.69,0 -1.01,-0.95 -1.01,-1.07 0,-0.09 0.1,-0.09 0.12,-0.09 0.09,0 0.1,0.04 0.12,0.11 0.18,0.6 0.49,0.85 0.75,0.85 0.11,0 0.17,-0.05 0.17,-0.24 0,-0.16 -0.04,-0.27 -0.21,-0.7 z"
         id="path4797" /><path
         style="fill:#000000;stroke-width:0"
         inkscape:connector-curvature="0"
         d="m 233.07,715.36 0,0 0,0 0,0 0,0 0,0 0,0 0,0 0,0.01 0,0 0.01,0 0,0.01 0,0 0,0 0,0.01 0,0 0,0.01 0,0 0,0.01 0.01,0.01 0,0.01 0,0 0,0 0,0.01 0,0 0,0.01 0,0 0.01,0 0,0.01 0,0 0,0 0,0 0,0 0,0 0,0 0,0.01 0,0 0,0 0,0 0,0 0,0 c 0,0.03 -0.03,0.1 -0.11,0.1 -0.14,0 -0.72,-0.06 -0.89,-0.07 -0.06,-0.01 -0.16,-0.02 -0.16,-0.16 0,-0.1 0.1,-0.1 0.18,-0.1 0.34,0 0.34,-0.05 0.34,-0.1 0,-0.05 -0.02,-0.1 -0.03,-0.16 l -0.98,-3.93 c -0.04,-0.13 -0.04,-0.14 -0.04,-0.16 0,-0.1 0.09,-0.22 0.24,-0.22 0.19,0 0.28,0.14 0.32,0.29 0.01,0.03 0.31,1.25 0.34,1.35 0.49,-0.05 0.89,-0.21 0.89,-0.57 0,-0.03 0,-0.07 -0.01,-0.14 -0.03,-0.1 -0.03,-0.14 -0.03,-0.21 0,-0.5 0.4,-0.72 0.74,-0.72 0.67,0 0.88,1.06 0.88,1.06 0,0.1 -0.09,0.1 -0.11,0.1 -0.1,0 -0.1,-0.04 -0.14,-0.17 -0.08,-0.3 -0.27,-0.8 -0.61,-0.8 -0.19,0 -0.24,0.18 -0.24,0.37 0,0.11 0,0.13 0.04,0.31 0,0.02 0.03,0.14 0.03,0.22 0,0.61 -0.83,0.71 -1.13,0.73 0.21,0.13 0.46,0.36 0.58,0.46 0.36,0.33 0.7,0.66 1.09,0.66 0.09,0 0.18,-0.02 0.23,-0.09 -0.29,-0.05 -0.36,-0.28 -0.36,-0.39 0,-0.15 0.12,-0.25 0.28,-0.25 0.19,0 0.4,0.15 0.4,0.44 0,0.23 -0.17,0.49 -0.54,0.49 -0.4,0 -0.76,-0.29 -1.11,-0.61 -0.29,-0.28 -0.52,-0.5 -0.81,-0.62 z"
         id="path4799" /><path
         style="fill:#000000;stroke-width:0"
         inkscape:connector-curvature="0"
         d="m 237.03,711.48 -0.01,-0.03 -0.01,-0.02 -0.01,-0.02 -0.01,-0.03 -0.01,-0.02 -0.01,-0.03 -0.01,-0.02 -0.01,-0.03 -0.02,-0.02 -0.01,-0.03 -0.02,-0.03 -0.02,-0.02 -0.02,-0.03 -0.01,-0.02 -0.02,-0.02 -0.02,-0.03 -0.02,-0.02 -0.03,-0.02 -0.02,-0.02 -0.02,-0.02 -0.03,-0.02 -0.02,-0.02 -0.03,-0.02 -0.03,-0.01 -0.02,-0.02 -0.03,-0.01 -0.03,-0.01 -0.03,-0.01 -0.03,-0.01 -0.03,0 -0.04,0 -0.03,-0.01 c -0.02,0 -0.23,0 -0.37,0.1 0.28,0.09 0.3,0.34 0.3,0.38 0,0.16 -0.12,0.26 -0.28,0.26 -0.19,0 -0.39,-0.17 -0.39,-0.42 0,-0.35 0.39,-0.51 0.73,-0.51 0.32,0 0.6,0.2 0.78,0.49 0.16,-0.36 0.55,-0.49 0.83,-0.49 0.8,0 1.22,0.87 1.22,1.06 0,0.1 -0.09,0.1 -0.11,0.1 -0.1,0 -0.1,-0.04 -0.13,-0.12 -0.15,-0.48 -0.57,-0.85 -0.96,-0.85 -0.27,0 -0.42,0.19 -0.42,0.46 0,0.18 0.17,0.81 0.36,1.58 0.14,0.54 0.45,0.71 0.68,0.71 0.02,0 0.23,0 0.38,-0.09 -0.22,-0.07 -0.31,-0.26 -0.31,-0.39 0,-0.15 0.12,-0.25 0.28,-0.25 0.16,0 0.39,0.13 0.39,0.42 0,0.39 -0.44,0.51 -0.72,0.51 -0.35,0 -0.63,-0.23 -0.78,-0.5 -0.13,0.29 -0.45,0.5 -0.84,0.5 -0.78,0 -1.22,-0.86 -1.22,-1.07 0,-0.09 0.09,-0.09 0.11,-0.09 0.1,0 0.1,0.03 0.14,0.12 0.17,0.54 0.61,0.84 0.95,0.84 0.23,0 0.42,-0.12 0.42,-0.46 0,-0.14 -0.08,-0.48 -0.15,-0.72 z"
         id="path4801" /></g>    <g
       id="g5008"
       transform="matrix(2.4027784,0,0,-2.4027782,-560.57687,2631.2727)"
       xml:space="preserve"
       stroke-miterlimit="10.433"
       font-style="normal"
       font-variant="normal"
       font-weight="normal"
       font-stretch="normal"
       font-size-adjust="none"
       letter-spacing="normal"
       word-spacing="normal"
       ns0:text="$r e^{-ikx}$"
       ns0:preamble=""
       style="font-style:normal;font-variant:normal;font-weight:normal;font-stretch:normal;letter-spacing:normal;word-spacing:normal;text-anchor:start;fill:none;fill-opacity:1;fill-rule:evenodd;stroke:#000000;stroke-width:0.41618484;stroke-linecap:butt;stroke-linejoin:miter;stroke-miterlimit:10.43299961;stroke-dasharray:none;stroke-dashoffset:0;stroke-opacity:1"
       inkscape:export-xdpi="500"
       inkscape:export-ydpi="500"><path
         style="fill:#000000;stroke-width:0"
         inkscape:connector-curvature="0"
         d="m 224.31,707.71 0,-0.01 -0.01,-0.02 0,-0.01 0,-0.02 -0.01,-0.03 -0.01,-0.03 -0.01,-0.03 0,-0.04 -0.01,-0.03 -0.01,-0.03 0,-0.01 -0.01,-0.02 0,-0.01 0,-0.02 0,-0.01 -0.01,-0.01 0,-0.02 0,-0.01 0,-0.01 -0.01,-0.01 0,-0.01 0,-0.01 0,-0.01 0,0 0,-0.01 0,-0.01 c 0,-0.18 0.14,-0.26 0.29,-0.26 0.12,0 0.29,0.07 0.37,0.27 0.02,0.04 0.35,1.39 0.39,1.57 0.08,0.33 0.26,1.03 0.32,1.3 0.04,0.12 0.32,0.59 0.56,0.81 0.08,0.07 0.37,0.33 0.79,0.33 0.26,0 0.41,-0.12 0.42,-0.12 -0.3,-0.05 -0.51,-0.29 -0.51,-0.55 0,-0.16 0.1,-0.35 0.37,-0.35 0.27,0 0.55,0.23 0.55,0.59 0,0.35 -0.32,0.65 -0.83,0.65 -0.64,0 -1.08,-0.49 -1.27,-0.77 -0.08,0.45 -0.44,0.77 -0.91,0.77 -0.45,0 -0.64,-0.39 -0.73,-0.57 -0.18,-0.34 -0.31,-0.93 -0.31,-0.96 0,-0.1 0.1,-0.1 0.12,-0.1 0.1,0 0.11,0.01 0.17,0.22 0.17,0.71 0.37,1.19 0.73,1.19 0.16,0 0.3,-0.08 0.3,-0.46 0,-0.21 -0.03,-0.32 -0.16,-0.83 z"
         id="path5010" /><path
         style="fill:#000000;stroke-width:0"
         inkscape:connector-curvature="0"
         d="m 230.07,709.42 0.03,0 0.03,0 0.03,0 0.03,0 0.04,0 0.04,0 0.04,0 0.05,0.01 0.04,0 0.05,0 0.04,0 0.05,0.01 0.05,0 0.05,0.01 0.11,0.01 0.11,0.01 0.1,0.01 0.11,0.02 0.11,0.02 0.11,0.03 0.05,0.01 0.05,0.02 0.05,0.01 0.05,0.02 0.05,0.02 0.05,0.02 c 0.7,0.3 0.75,0.88 0.75,1.02 0,0.44 -0.38,0.85 -1.07,0.85 l 0,-0.22 c 0.47,0 0.74,-0.29 0.74,-0.63 0,-1.03 -1.6,-1.03 -2,-1.03 l -0.41,0 c 0.39,1.51 1.41,1.66 1.67,1.66 l 0,0.22 c -1.1,0 -2.61,-0.97 -2.61,-2.71 0,-1.01 0.59,-1.79 1.57,-1.79 1.42,0 2.25,1.05 2.25,1.17 0,0.06 -0.05,0.13 -0.11,0.13 -0.05,0 -0.08,-0.02 -0.13,-0.1 -0.79,-0.99 -1.87,-0.99 -1.99,-0.99 -0.78,0 -0.87,0.84 -0.87,1.16 0,0.12 0.01,0.42 0.16,1.03 z"
         id="path5012" /><path
         style="fill:#000000;stroke-width:0"
         inkscape:connector-curvature="0"
         d="m 238.02,712.31 0.01,0 0.02,0 0.01,0 0.01,0 0.02,0 0.01,0 0.01,0 0.02,0 0.01,0.01 0.01,0 0.01,0 0.01,0 0.01,0 0.01,0.01 0.01,0 0.01,0.01 0.01,0 0.01,0.01 0.01,0 0.01,0.01 0.01,0.01 0.01,0 0,0.01 0,0 0.01,0.01 0,0 0,0.01 0.01,0 0,0.01 0,0 0,0.01 0,0 0.01,0.01 0,0.01 0,0 0,0.01 0,0.01 0,0 0,0.01 0,0.01 c 0,0.17 -0.16,0.17 -0.28,0.17 l -4.15,0 c -0.11,0 -0.28,0 -0.28,-0.17 0,-0.17 0.16,-0.17 0.28,-0.17 z"
         id="path5014" /><path
         style="fill:#000000;stroke-width:0"
         inkscape:connector-curvature="0"
         d="m 241.32,715.09 0,0.01 0,0.01 0,0.01 0,0.01 0,0.01 0,0.01 -0.01,0.01 0,0.01 -0.01,0.02 0,0.01 -0.01,0.01 0,0.01 -0.01,0.01 -0.01,0.01 0,0.01 -0.01,0.01 -0.01,0.01 -0.01,0.01 -0.01,0.01 -0.01,0.01 -0.01,0 -0.01,0.01 -0.01,0.01 -0.02,0 -0.01,0.01 -0.01,0.01 -0.02,0 -0.02,0 -0.01,0.01 -0.02,0 -0.02,0 -0.01,0 c -0.19,0 -0.39,-0.18 -0.39,-0.38 0,-0.12 0.09,-0.27 0.27,-0.27 0.21,0 0.39,0.2 0.39,0.39 z"
         id="path5016" /><path
         style="fill:#000000;stroke-width:0"
         inkscape:connector-curvature="0"
         d="m 239.9,711.55 0,-0.01 -0.01,-0.02 -0.01,-0.03 0,-0.02 -0.01,-0.02 0,-0.01 -0.01,-0.02 0,-0.02 -0.01,-0.02 0,-0.02 0,-0.02 0,-0.01 0,-0.01 -0.01,-0.01 0,-0.01 0,-0.01 0,-0.01 0,-0.01 0,-0.01 c 0,-0.33 0.28,-0.59 0.66,-0.59 0.7,0 1.01,0.96 1.01,1.06 0,0.1 -0.09,0.1 -0.11,0.1 -0.1,0 -0.11,-0.05 -0.14,-0.12 -0.16,-0.56 -0.46,-0.85 -0.74,-0.85 -0.14,0 -0.17,0.1 -0.17,0.25 0,0.16 0.05,0.29 0.11,0.44 0.07,0.19 0.15,0.38 0.22,0.56 0.07,0.17 0.32,0.8 0.35,0.88 0.02,0.07 0.04,0.16 0.04,0.23 0,0.32 -0.28,0.59 -0.66,0.59 -0.69,0 -1.01,-0.95 -1.01,-1.07 0,-0.09 0.09,-0.09 0.11,-0.09 0.1,0 0.11,0.04 0.13,0.11 0.18,0.6 0.49,0.85 0.74,0.85 0.12,0 0.18,-0.05 0.18,-0.24 0,-0.16 -0.04,-0.27 -0.22,-0.7 z"
         id="path5018" /><path
         style="fill:#000000;stroke-width:0"
         inkscape:connector-curvature="0"
         d="m 244.07,715.36 0,0 0,0 0,0 0,0 0,0 0,0 0,0 0,0.01 0,0 0,0 0,0.01 0.01,0 0,0 0,0.01 0,0 0,0.01 0,0 0,0.01 0,0.01 0.01,0.01 0,0 0,0 0,0.01 0,0 0,0.01 0,0 0,0 0,0.01 0,0 0,0 0,0 0.01,0 0,0 0,0 0,0.01 0,0 0,0 0,0 0,0 0,0 c 0,0.03 -0.03,0.1 -0.12,0.1 -0.13,0 -0.71,-0.06 -0.89,-0.07 -0.05,-0.01 -0.15,-0.02 -0.15,-0.16 0,-0.1 0.1,-0.1 0.18,-0.1 0.34,0 0.34,-0.05 0.34,-0.1 0,-0.05 -0.02,-0.1 -0.03,-0.16 l -0.98,-3.93 c -0.04,-0.13 -0.04,-0.14 -0.04,-0.16 0,-0.1 0.08,-0.22 0.24,-0.22 0.19,0 0.28,0.14 0.32,0.29 0.01,0.03 0.31,1.25 0.34,1.35 0.49,-0.05 0.89,-0.21 0.89,-0.57 0,-0.03 0,-0.07 -0.01,-0.14 -0.03,-0.1 -0.03,-0.14 -0.03,-0.21 0,-0.5 0.4,-0.72 0.74,-0.72 0.67,0 0.88,1.06 0.88,1.06 0,0.1 -0.09,0.1 -0.11,0.1 -0.1,0 -0.1,-0.04 -0.14,-0.17 -0.08,-0.3 -0.27,-0.8 -0.61,-0.8 -0.19,0 -0.25,0.18 -0.25,0.37 0,0.11 0,0.13 0.04,0.31 0.01,0.02 0.04,0.14 0.04,0.22 0,0.61 -0.84,0.71 -1.13,0.73 0.2,0.13 0.46,0.36 0.58,0.46 0.35,0.33 0.7,0.66 1.09,0.66 0.09,0 0.18,-0.02 0.23,-0.09 -0.3,-0.05 -0.36,-0.28 -0.36,-0.39 0,-0.15 0.12,-0.25 0.28,-0.25 0.19,0 0.4,0.15 0.4,0.44 0,0.23 -0.17,0.49 -0.54,0.49 -0.4,0 -0.76,-0.29 -1.11,-0.61 -0.3,-0.28 -0.53,-0.5 -0.81,-0.62 z"
         id="path5020" /><path
         style="fill:#000000;stroke-width:0"
         inkscape:connector-curvature="0"
         d="m 248.02,711.48 0,-0.03 -0.01,-0.02 -0.01,-0.02 -0.01,-0.03 -0.01,-0.02 -0.01,-0.03 -0.01,-0.02 -0.02,-0.03 -0.01,-0.02 -0.02,-0.03 -0.01,-0.03 -0.02,-0.02 -0.02,-0.03 -0.02,-0.02 -0.02,-0.02 -0.02,-0.03 -0.02,-0.02 -0.02,-0.02 -0.02,-0.02 -0.03,-0.02 -0.02,-0.02 -0.02,-0.02 -0.03,-0.02 -0.03,-0.01 -0.03,-0.02 -0.02,-0.01 -0.03,-0.01 -0.03,-0.01 -0.03,-0.01 -0.03,0 -0.04,0 -0.03,-0.01 c -0.02,0 -0.23,0 -0.38,0.1 0.29,0.09 0.31,0.34 0.31,0.38 0,0.16 -0.12,0.26 -0.28,0.26 -0.19,0 -0.4,-0.17 -0.4,-0.42 0,-0.35 0.39,-0.51 0.74,-0.51 0.32,0 0.6,0.2 0.78,0.49 0.16,-0.36 0.55,-0.49 0.82,-0.49 0.81,0 1.23,0.87 1.23,1.06 0,0.1 -0.09,0.1 -0.11,0.1 -0.1,0 -0.1,-0.04 -0.13,-0.12 -0.15,-0.48 -0.57,-0.85 -0.96,-0.85 -0.28,0 -0.42,0.19 -0.42,0.46 0,0.18 0.17,0.81 0.36,1.58 0.14,0.54 0.45,0.71 0.68,0.71 0.02,0 0.23,0 0.38,-0.09 -0.22,-0.07 -0.31,-0.26 -0.31,-0.39 0,-0.15 0.12,-0.25 0.28,-0.25 0.16,0 0.39,0.13 0.39,0.42 0,0.39 -0.45,0.51 -0.72,0.51 -0.35,0 -0.63,-0.23 -0.78,-0.5 -0.13,0.29 -0.45,0.5 -0.84,0.5 -0.78,0 -1.22,-0.86 -1.22,-1.07 0,-0.09 0.09,-0.09 0.11,-0.09 0.09,0 0.1,0.03 0.14,0.12 0.17,0.54 0.61,0.84 0.95,0.84 0.23,0 0.42,-0.12 0.42,-0.46 0,-0.14 -0.09,-0.48 -0.15,-0.72 z"
         id="path5022" /></g>    <g
       style="font-style:normal;font-variant:normal;font-weight:normal;font-stretch:normal;letter-spacing:normal;word-spacing:normal;text-anchor:start;fill:none;fill-opacity:1;fill-rule:evenodd;stroke:#000000;stroke-width:0.41618484;stroke-linecap:butt;stroke-linejoin:miter;stroke-miterlimit:10.43299961;stroke-dasharray:none;stroke-dashoffset:0;stroke-opacity:1"
       ns0:preamble=""
       ns0:text="$t e^{ikx}$"
       word-spacing="normal"
       letter-spacing="normal"
       font-size-adjust="none"
       font-stretch="normal"
       font-weight="normal"
       font-variant="normal"
       font-style="normal"
       stroke-miterlimit="10.433"
       xml:space="preserve"
       transform="matrix(2.4027784,0,0,-2.4027782,-302.57687,2617.2727)"
       id="g5142"
       inkscape:export-xdpi="500"
       inkscape:export-ydpi="500"><path
         id="path5144"
         d="m 225.48,711.1 0.94,0 c 0.2,0 0.29,0 0.29,0.2 0,0.11 -0.09,0.11 -0.27,0.11 l -0.88,0 c 0.36,1.41 0.41,1.61 0.41,1.67 0,0.16 -0.12,0.26 -0.29,0.26 -0.03,0 -0.31,-0.01 -0.4,-0.35 l -0.38,-1.58 -0.94,0 c -0.2,0 -0.3,0 -0.3,-0.19 0,-0.12 0.08,-0.12 0.28,-0.12 l 0.88,0 c -0.72,-2.82 -0.76,-2.99 -0.76,-3.17 0,-0.54 0.38,-0.91 0.91,-0.91 1.02,0 1.59,1.45 1.59,1.53 0,0.1 -0.08,0.1 -0.12,0.1 -0.09,0 -0.1,-0.04 -0.15,-0.14 -0.43,-1.04 -0.96,-1.28 -1.3,-1.28 -0.2,0 -0.3,0.13 -0.3,0.46 0,0.24 0.02,0.31 0.05,0.48 z"
         inkscape:connector-curvature="0"
         style="fill:#000000;stroke-width:0" /><path
         id="path5146"
         d="m 228.89,709.42 0.03,0 0.03,0 0.03,0 0.04,0 0.04,0 0.03,0 0.05,0 0.04,0.01 0.04,0 0.05,0 0.05,0 0.05,0.01 0.05,0 0.05,0.01 0.1,0.01 0.11,0.01 0.11,0.01 0.11,0.02 0.11,0.02 0.1,0.03 0.05,0.01 0.06,0.02 0.05,0.01 0.05,0.02 0.04,0.02 0.05,0.02 c 0.7,0.3 0.75,0.88 0.75,1.02 0,0.44 -0.38,0.85 -1.07,0.85 l 0,-0.22 c 0.47,0 0.74,-0.29 0.74,-0.63 0,-1.03 -1.59,-1.03 -2,-1.03 l -0.41,0 c 0.39,1.51 1.42,1.66 1.67,1.66 l 0,0.22 c -1.1,0 -2.6,-0.97 -2.6,-2.71 0,-1.01 0.58,-1.79 1.56,-1.79 1.42,0 2.26,1.05 2.26,1.17 0,0.06 -0.06,0.13 -0.12,0.13 -0.05,0 -0.07,-0.02 -0.13,-0.1 -0.79,-0.99 -1.87,-0.99 -1.99,-0.99 -0.78,0 -0.87,0.84 -0.87,1.16 0,0.12 0.01,0.42 0.16,1.03 z"
         inkscape:connector-curvature="0"
         style="fill:#000000;stroke-width:0" /><path
         id="path5148"
         d="m 233.93,715.09 -0.01,0.01 0,0.01 0,0.01 0,0.01 0,0.01 0,0.01 -0.01,0.01 0,0.01 -0.01,0.02 0,0.01 -0.01,0.01 0,0.01 -0.01,0.01 -0.01,0.01 0,0.01 -0.01,0.01 -0.01,0.01 -0.01,0.01 -0.01,0.01 -0.01,0.01 -0.01,0 -0.01,0.01 -0.01,0.01 -0.02,0 -0.01,0.01 -0.01,0.01 -0.02,0 -0.02,0 -0.01,0.01 -0.02,0 -0.02,0 -0.01,0 c -0.19,0 -0.39,-0.18 -0.39,-0.38 0,-0.12 0.09,-0.27 0.28,-0.27 0.2,0 0.39,0.2 0.39,0.39 z"
         inkscape:connector-curvature="0"
         style="fill:#000000;stroke-width:0" /><path
         id="path5150"
         d="m 232.51,711.55 -0.01,-0.01 -0.01,-0.02 -0.01,-0.03 0,-0.02 -0.01,-0.02 0,-0.01 -0.01,-0.02 0,-0.02 -0.01,-0.02 0,-0.02 0,-0.02 0,-0.01 0,-0.01 -0.01,-0.01 0,-0.01 0,-0.01 0,-0.01 0,-0.01 0,-0.01 c 0,-0.33 0.28,-0.59 0.66,-0.59 0.7,0 1.01,0.96 1.01,1.06 0,0.1 -0.09,0.1 -0.12,0.1 -0.09,0 -0.1,-0.05 -0.13,-0.12 -0.16,-0.56 -0.46,-0.85 -0.74,-0.85 -0.13,0 -0.17,0.1 -0.17,0.25 0,0.16 0.05,0.29 0.11,0.44 0.07,0.19 0.15,0.38 0.23,0.56 0.06,0.17 0.31,0.8 0.34,0.88 0.02,0.07 0.04,0.16 0.04,0.23 0,0.32 -0.28,0.59 -0.66,0.59 -0.69,0 -1.01,-0.95 -1.01,-1.07 0,-0.09 0.09,-0.09 0.12,-0.09 0.09,0 0.1,0.04 0.12,0.11 0.18,0.6 0.49,0.85 0.75,0.85 0.11,0 0.17,-0.05 0.17,-0.24 0,-0.16 -0.04,-0.27 -0.22,-0.7 z"
         inkscape:connector-curvature="0"
         style="fill:#000000;stroke-width:0" /><path
         id="path5152"
         d="m 236.67,715.36 0,0 0,0 0,0 0,0 0,0 0,0 0,0 0,0.01 0,0 0,0 0,0.01 0.01,0 0,0 0,0.01 0,0 0,0.01 0,0 0,0.01 0,0.01 0.01,0.01 0,0 0,0 0,0.01 0,0 0,0.01 0,0 0,0 0,0.01 0,0 0,0 0,0 0,0 0,0 0,0 0,0.01 0,0 0,0 0,0 0,0 0.01,0 c 0,0.03 -0.03,0.1 -0.12,0.1 -0.13,0 -0.71,-0.06 -0.89,-0.07 -0.05,-0.01 -0.15,-0.02 -0.15,-0.16 0,-0.1 0.1,-0.1 0.18,-0.1 0.33,0 0.33,-0.05 0.33,-0.1 0,-0.05 -0.01,-0.1 -0.02,-0.16 l -0.99,-3.93 c -0.03,-0.13 -0.03,-0.14 -0.03,-0.16 0,-0.1 0.08,-0.22 0.24,-0.22 0.18,0 0.27,0.14 0.32,0.29 0.01,0.03 0.31,1.25 0.34,1.35 0.49,-0.05 0.89,-0.21 0.89,-0.57 0,-0.03 0,-0.07 -0.01,-0.14 -0.03,-0.1 -0.03,-0.14 -0.03,-0.21 0,-0.5 0.4,-0.72 0.74,-0.72 0.67,0 0.88,1.06 0.88,1.06 0,0.1 -0.09,0.1 -0.11,0.1 -0.1,0 -0.11,-0.04 -0.14,-0.17 -0.08,-0.3 -0.27,-0.8 -0.61,-0.8 -0.19,0 -0.25,0.18 -0.25,0.37 0,0.11 0,0.13 0.05,0.31 0,0.02 0.03,0.14 0.03,0.22 0,0.61 -0.84,0.71 -1.13,0.73 0.2,0.13 0.46,0.36 0.58,0.46 0.35,0.33 0.7,0.66 1.09,0.66 0.09,0 0.18,-0.02 0.23,-0.09 -0.3,-0.05 -0.36,-0.28 -0.36,-0.39 0,-0.15 0.12,-0.25 0.28,-0.25 0.19,0 0.4,0.15 0.4,0.44 0,0.23 -0.17,0.49 -0.54,0.49 -0.4,0 -0.76,-0.29 -1.11,-0.61 -0.3,-0.28 -0.53,-0.5 -0.81,-0.62 z"
         inkscape:connector-curvature="0"
         style="fill:#000000;stroke-width:0" /><path
         id="path5154"
         d="m 240.62,711.48 0,-0.03 -0.01,-0.02 -0.01,-0.02 -0.01,-0.03 -0.01,-0.02 -0.01,-0.03 -0.01,-0.02 -0.02,-0.03 -0.01,-0.02 -0.02,-0.03 -0.01,-0.03 -0.02,-0.02 -0.02,-0.03 -0.02,-0.02 -0.02,-0.02 -0.02,-0.03 -0.02,-0.02 -0.02,-0.02 -0.02,-0.02 -0.03,-0.02 -0.02,-0.02 -0.02,-0.02 -0.03,-0.02 -0.03,-0.01 -0.03,-0.02 -0.02,-0.01 -0.03,-0.01 -0.03,-0.01 -0.03,-0.01 -0.03,0 -0.04,0 -0.03,-0.01 c -0.02,0 -0.23,0 -0.38,0.1 0.29,0.09 0.31,0.34 0.31,0.38 0,0.16 -0.12,0.26 -0.28,0.26 -0.19,0 -0.39,-0.17 -0.39,-0.42 0,-0.35 0.39,-0.51 0.73,-0.51 0.32,0 0.6,0.2 0.78,0.49 0.16,-0.36 0.55,-0.49 0.83,-0.49 0.8,0 1.22,0.87 1.22,1.06 0,0.1 -0.09,0.1 -0.11,0.1 -0.1,0 -0.11,-0.04 -0.13,-0.12 -0.15,-0.48 -0.57,-0.85 -0.96,-0.85 -0.28,0 -0.42,0.19 -0.42,0.46 0,0.18 0.17,0.81 0.36,1.58 0.14,0.54 0.45,0.71 0.68,0.71 0.02,0 0.23,0 0.38,-0.09 -0.22,-0.07 -0.31,-0.26 -0.31,-0.39 0,-0.15 0.12,-0.25 0.28,-0.25 0.16,0 0.39,0.13 0.39,0.42 0,0.39 -0.44,0.51 -0.72,0.51 -0.35,0 -0.63,-0.23 -0.78,-0.5 -0.13,0.29 -0.45,0.5 -0.84,0.5 -0.78,0 -1.23,-0.86 -1.23,-1.07 0,-0.09 0.1,-0.09 0.12,-0.09 0.09,0 0.1,0.03 0.14,0.12 0.17,0.54 0.61,0.84 0.95,0.84 0.23,0 0.42,-0.12 0.42,-0.46 0,-0.14 -0.09,-0.48 -0.15,-0.72 z"
         inkscape:connector-curvature="0"
         style="fill:#000000;stroke-width:0" /></g>  </g>
</svg>
